<?xml version="1.0" encoding="UTF-8" standalone="no"?>
<!-- Created with Inkscape (http://www.inkscape.org/) -->

<svg
   width="166.39886mm"
   height="166.39886mm"
   viewBox="0 0 166.39886 166.39886"
   version="1.1"
   id="svg1"
   xmlns:inkscape="http://www.inkscape.org/namespaces/inkscape"
   xmlns:sodipodi="http://sodipodi.sourceforge.net/DTD/sodipodi-0.dtd"
   xmlns="http://www.w3.org/2000/svg"
   xmlns:svg="http://www.w3.org/2000/svg">
  <sodipodi:namedview
     id="namedview1"
     pagecolor="#ffffff"
     bordercolor="#000000"
     borderopacity="0.25"
     inkscape:showpageshadow="2"
     inkscape:pageopacity="0.0"
     inkscape:pagecheckerboard="0"
     inkscape:deskcolor="#d1d1d1"
     inkscape:document-units="mm" />
  <defs
     id="defs1">
    <inkscape:path-effect
       effect="bspline"
       id="path-effect18"
       is_visible="true"
       lpeversion="1.3"
       weight="33.333333"
       steps="2"
       helper_size="0"
       apply_no_weight="true"
       apply_with_weight="true"
       only_selected="false"
       uniform="false" />
    <inkscape:path-effect
       effect="bspline"
       id="path-effect16"
       is_visible="true"
       lpeversion="1.3"
       weight="33.333333"
       steps="2"
       helper_size="0"
       apply_no_weight="true"
       apply_with_weight="true"
       only_selected="false"
       uniform="false" />
  </defs>
  <g
     inkscape:label="Layer 1"
     inkscape:groupmode="layer"
     id="layer1"
     transform="translate(-24.145993,-67.6425)">
    <circle
       style="fill:#ffc1ff;fill-opacity:1;stroke:#000000;stroke-width:1.5875;stroke-opacity:1"
       id="path1"
       cx="107.34543"
       cy="150.84193"
       r="82.405685" />
    <path
       style="fill:#010001;fill-opacity:1;stroke:#840e7c;stroke-width:1;stroke-dasharray:none;stroke-opacity:1"
       d="m 82.545991,114.20555 c -2.935274,-2.13666 -5.870543,-4.27331 -9.697722,-4.1797 -3.827179,0.0936 -8.546075,2.41738 -10.71585,10.02337 -2.169774,7.60599 -1.790347,20.49361 -5.479981,30.81691 -3.689633,10.32329 -11.448025,18.08168 -15.789459,21.4988 -4.341433,3.41711 -5.265715,2.49283 -7.211003,-0.53819 -1.945289,-3.03102 -4.911454,-8.16857 -5.315552,-12.6063 -0.404097,-4.43772 1.753847,-8.17539 5.810856,-12.87534 4.057009,-4.69994 10.01281,-10.36187 12.536082,-16.67854 2.523272,-6.31666 1.613938,-13.28766 6.672389,-19.94075 5.058451,-6.65309 16.084271,-12.98786 24.697035,-13.723922 8.612764,-0.736061 14.812004,4.126522 19.591324,4.067192 4.77932,-0.0593 8.13846,-5.040454 10.12957,-9.191175 1.99111,-4.15072 2.61409,-7.470796 5.145,-8.998895 2.53091,-1.528099 6.96957,-1.264163 10.96794,-2.275957 3.99837,-1.011794 7.55623,-3.299231 13.13013,-1.321144 5.5739,1.978087 13.16347,8.221487 19.20186,17.141554 6.0384,8.920067 10.52529,20.516217 13.09795,28.791317 2.57266,8.27509 3.23097,13.22871 3.482,17.11702 0.25103,3.8883 0.0948,6.71108 -4.35391,7.3952 -4.44869,0.68412 -13.18945,-0.7704 -17.93222,-5.93193 -4.74278,-5.16153 -5.48737,-14.02967 -6.78161,-20.81556 -1.29424,-6.78589 -3.13805,-11.48916 -6.57815,-15.14749 -3.44011,-3.65833 -8.47627,-6.27152 -11.43346,-6.68304 -2.95719,-0.411522 -3.83528,1.37862 -4.71338,3.16879"
       id="path18"
       inkscape:path-effect="#path-effect18"
       inkscape:original-d="m 82.545991,114.20555 c -2.935272,-2.13666 -5.870544,-4.27331 -8.805818,-6.40997 -4.719084,2.32387 -9.437981,4.64765 -14.15697,6.97148 0.379441,12.88815 0.75887,25.77577 1.138303,38.66366 -7.758702,7.7587 -15.517095,15.51709 -23.275641,23.27564 -0.924319,-0.92432 -1.848602,-1.8486 -2.7729,-2.7729 -2.96628,-5.13774 -5.932442,-10.27529 -8.898663,-15.41293 2.158027,-3.73781 4.315969,-7.47548 6.473953,-11.21322 5.956035,-5.66215 11.911835,-11.32408 17.867751,-16.98612 -0.90937,-6.97129 -1.818706,-13.94229 -2.72806,-20.91344 11.026259,-6.33502 22.052076,-12.669801 33.078115,-19.004701 6.199489,4.862777 12.398729,9.725361 18.598094,14.588041 3.359275,-4.98133 6.718415,-9.962465 10.077625,-14.943697 0.623,-3.320209 1.24598,-6.640285 1.86898,-9.960427 4.43883,0.263946 8.87749,0.52788 13.31623,0.791821 3.558,-2.287527 7.11586,-4.574962 10.67378,-6.862443 7.58988,6.24365 15.17945,12.48705 22.76917,18.730575 4.48707,11.596611 8.97396,23.192761 13.46094,34.789141 0.65834,4.95381 1.31665,9.90743 1.97497,14.86115 -0.15626,2.82289 -0.31252,5.64567 -0.46878,8.4685 -8.74111,-1.45458 -17.48187,-2.90911 -26.2228,-4.36367 -0.74462,-8.8685 -1.48921,-17.73664 -2.23381,-26.60496 -1.84388,-4.70346 -3.68769,-9.40673 -5.53153,-14.11009 -5.03637,-2.6133 -10.07253,-5.22649 -15.10879,-7.839738 -0.87812,1.790206 -1.75621,3.580348 -2.63431,5.370518"
       sodipodi:nodetypes="ccccccccccccccccccccccccc" />
  </g>
  <g
     inkscape:groupmode="layer"
     id="layer2"
     inkscape:label="Layer 2"
     transform="translate(-24.145993,-67.6425)">
    <ellipse
       style="fill:#010001;fill-opacity:1;stroke:#840e7c;stroke-width:1;stroke-dasharray:none;stroke-opacity:1"
       id="path14"
       cx="116.024"
       cy="151.8053"
       rx="55.795513"
       ry="47.95314" />
    <path
       style="fill:#ffc1ff;fill-opacity:1;stroke:#000000;stroke-width:2;stroke-dasharray:none;stroke-opacity:1"
       d="m 165.00179,163.8859 c -7.07594,4.2205 -21.22753,12.66132 -38.16417,15.93925 -16.93663,3.27794 -36.65775,1.39265 -46.518306,0.45001 C 70.458758,179.33252 59.91644,155.9784 69.047,157.40256 c 9.130561,1.42415 27.391681,4.27247 45.51575,1.88606 18.12406,-2.3864 36.11036,-10.00723 45.17366,-14.58322 9.0633,-4.576 9.20325,-6.10696 9.27322,-6.87246 0.07,-0.76549 3.0681,21.83247 -4.00784,26.05296 z"
       id="path16"
       transform="translate(-0.73067583,2.0493569)"
       sodipodi:nodetypes="cccccccc"
       inkscape:original-d="m 172.07773,159.66541 c -14.15188,8.44099 -28.30347,16.88181 -42.45563,25.32296 -19.72111,-1.88528 -39.44223,-3.77057 -59.163342,-5.65585 L 59.91644,155.9784 c 18.261121,2.84831 36.522242,5.69662 54.78337,8.54494 17.987,-7.62113 35.9733,-15.24195 53.95995,-22.86292 0.13995,-1.53102 0.2799,-3.06198 0.41985,-4.59297 z"
       inkscape:path-effect="#path-effect16" />
    <path
       id="path23"
       style="fill:#e925c5;fill-opacity:1;stroke:#000000;stroke-width:1.80246;stroke-dasharray:none;stroke-opacity:1"
       d="m 109.41831,162.12951 c -0.35615,0.0163 -0.71526,0.0417 -1.07022,0.0548 -1.1156,0.0411 -2.22506,0.0665 -3.32589,0.078 -1.10084,0.0116 -2.19268,0.01 -3.27422,-0.005 -1.08154,-0.0147 -2.152417,-0.0419 -3.210141,-0.0796 -1.057724,-0.0377 -2.102728,-0.0862 -3.132109,-0.14366 -1.02938,-0.0575 -2.043095,-0.12394 -3.039607,-0.19792 -1.993025,-0.14795 -3.916153,-0.32538 -5.750554,-0.51986 -0.500512,-0.0531 -0.937214,-0.11421 -1.424202,-0.1695 a 15.76346,14.799927 0 0 0 -4.095357,9.92239 15.76346,14.799927 0 0 0 5.925736,11.52591 c 0.47178,0.0437 0.865405,0.0829 1.366325,0.12764 1.516013,0.13536 3.161265,0.27352 4.911328,0.40256 1.750064,0.12904 3.604994,0.24891 5.539714,0.34778 1.934717,0.0989 3.949287,0.17684 6.019267,0.2217 0.0584,0.001 0.11881,8.5e-4 0.17725,0.002 a 15.76346,14.799927 0 0 0 7.58714,-12.62765 15.76346,14.799927 0 0 0 -3.20446,-8.93951 z" />
    <path
       style="fill:none;stroke:#840e7c;stroke-width:1;stroke-dasharray:none;stroke-opacity:1"
       d="M 60.050324,218.41131 92.569887,195.72979"
       id="path12"
       sodipodi:nodetypes="cc" />
    <path
       style="fill:none;stroke:#840e7c;stroke-width:1;stroke-dasharray:none;stroke-opacity:1"
       d="m 133.11599,197.5826 20.31473,21.53608"
       id="path13"
       sodipodi:nodetypes="cc" />
    <path
       style="fill:#010001;fill-opacity:1;stroke:#000000;stroke-width:7.45333;stroke-dasharray:none;stroke-opacity:1"
       d="m 378.62938,876.92177 c -28.30601,-2.44771 -60.68384,-10.29675 -88.74126,-21.51267 -18.29026,-7.31151 -54.23077,-26.86602 -54.23077,-29.50588 0,-1.27609 115.32078,-81.96416 117.10648,-81.93751 0.66836,0.01 6.03867,1.55785 11.93402,3.43972 24.29081,7.75392 45.10059,10.7762 74.07839,10.75868 22.67787,-0.0137 36.691,-1.42762 53.6959,-5.41785 l 8.33928,-1.95682 4.57164,4.71368 c 11.83228,12.1999 67.98409,72.13432 67.98409,72.56377 0,0.2673 -4.2213,3.00495 -9.38067,6.08365 -55.82361,33.31113 -120.95516,48.34027 -185.3571,42.77123 z"
       id="path19"
       transform="scale(0.26458333)" />
    <path
       id="path25"
       style="fill:#e925c5;fill-opacity:1;stroke:#000000;stroke-width:1.80246;stroke-dasharray:none;stroke-opacity:1"
       d="m 148.14161,152.4971 c -0.33129,0.13176 -0.66239,0.27309 -0.99359,0.40144 -1.04096,0.40331 -2.08124,0.78978 -3.11791,1.1603 -1.03664,0.37061 -2.06909,0.7258 -3.09619,1.06497 -1.02699,0.33945 -2.04799,0.6636 -3.05999,0.97353 -1.01201,0.30993 -2.01551,0.6055 -3.00718,0.88749 -0.99168,0.28196 -1.97148,0.55035 -2.93748,0.806 -1.932,0.51129 -3.80756,0.97189 -5.60483,1.38739 -0.49041,0.11333 -0.92311,0.19825 -1.40144,0.30509 a 14.799927,15.76346 70.93119 0 0 -0.62895,10.71589 14.799927,15.76346 70.93119 0 0 9.36612,8.95749 c 0.46017,-0.11283 0.84501,-0.20438 1.33306,-0.32575 1.47704,-0.36736 3.07715,-0.77429 4.77335,-1.22408 1.69618,-0.44979 3.48849,-0.94251 5.34935,-1.48115 1.86087,-0.5386 3.79035,-1.12311 5.7614,-1.75698 0.0555,-0.0181 0.11257,-0.038 0.16818,-0.056 a 14.799927,15.76346 70.93119 0 0 3.04531,-14.41347 14.799927,15.76346 70.93119 0 0 -5.94919,-7.40207 z" />
    <circle
       style="fill:#ffc1ff;fill-opacity:1;stroke:none;stroke-width:1.24891;stroke-dasharray:none;stroke-opacity:1"
       id="path26"
       cx="96.697937"
       cy="172.46623"
       r="3.9265165" />
    <circle
       style="fill:#ffc1ff;fill-opacity:1;stroke:none;stroke-width:1.24891;stroke-dasharray:none;stroke-opacity:1"
       id="circle26"
       cx="140.54248"
       cy="166.34911"
       r="3.9265165" />
  </g>
</svg>
